<svg xmlns="http://www.w3.org/2000/svg" width="45" height="51" viewBox="0 0 45 51">
  <g id="enire_place_icon" transform="translate(-950 -527)">
    <rect id="background" width="39" height="39" transform="translate(953 530)" fill="#fff"/>
    <path id="custom-house-icon" d="M22,51h0l-4.8-6H4a4,4,0,0,1-4-4V4A4,4,0,0,1,4,0H41a4,4,0,0,1,4,4V41a4,4,0,0,1-4,4H26.8L22,51Zm.5-40.56a.992.992,0,0,0-.72.306L10.634,22.306A1,1,0,0,0,11.354,24H13V34a1,1,0,0,0,1,1h6V28a1,1,0,0,1,1-1h3a1,1,0,0,1,1,1v7h6a1,1,0,0,0,1-1V24h1.646a1,1,0,0,0,.72-1.694L23.22,10.746A.992.992,0,0,0,22.5,10.44Z" transform="translate(950 527)" fill="#707070"/>
  </g>
</svg>
