<svg xmlns="http://www.w3.org/2000/svg" xmlns:xlink="http://www.w3.org/1999/xlink" width="24.297" height="24.56" viewBox="0 0 24.297 24.56">
    <g transform="translate(0 0)" fill="#000">
    <path d="M9.648,24.56h-6a1,1,0,0,1-1-1v-10H1a1,1,0,0,1-.72-1.695L11.428.306a1,1,0,0,1,1.44,0l2.78,2.883V2.56h4V7.337l4.367,4.529a1,1,0,0,1-.72,1.695H21.649v10a1,1,0,0,1-1,1h-6v-7a1,1,0,0,0-1-1h-3a1,1,0,0,0-1,1v7h0Z" stroke="none"/>
    <path d="M 8.648900985717773 23.55994987487793 L 8.648900985717773 17.55990028381348 C 8.648900985717773 16.45666122436523 9.546051025390625 15.55910015106201 10.64880084991455 15.55910015106201 L 13.6485013961792 15.55910015106201 C 14.75125122070313 15.55910015106201 15.64840126037598 16.45666122436523 15.64840126037598 17.55990028381348 L 15.64840126037598 23.55921745300293 L 20.64860153198242 23.55929946899414 L 20.64860153198242 13.56030082702637 L 20.64860153198242 12.56030082702637 L 21.64860153198242 12.56030082702637 L 23.29452896118164 12.56030082702637 C 23.29461860656738 12.56008815765381 23.29470825195313 12.55987548828125 23.29484176635742 12.55971050262451 L 18.92804145812988 8.030910491943359 L 18.64790153503418 7.740390300750732 L 18.64790153503418 7.336800575256348 L 18.64790153503418 3.559600353240967 L 16.64830017089844 3.559600353240967 L 16.64830017089844 5.666150569915771 L 14.92850112915039 3.882880449295044 L 12.14805126190186 1.000130414962769 L 1.001940965652466 12.5593204498291 C 1.00182843208313 12.5594367980957 1.001718044281006 12.55955219268799 1.001609206199646 12.55966663360596 C 1.001695394515991 12.5598783493042 1.001783728599548 12.56009006500244 1.001873731613159 12.56030082702637 L 2.648700952529907 12.56030082702637 L 3.648700952529907 12.56030082702637 L 3.648700952529907 13.56030082702637 L 3.648751020431519 23.55920028686523 L 8.648900985717773 23.55994987487793 M 9.648900985717773 24.56010055541992 L 9.648000717163086 24.56010055541992 L 3.648601055145264 24.55920028686523 C 3.096900939941406 24.55920028686523 2.648700952529907 24.11100006103516 2.648700952529907 23.55929946899414 L 2.648700952529907 13.56030082702637 L 1.0017009973526 13.56030082702637 C 0.1197009906172752 13.56030082702637 -0.3302990198135376 12.50100040435791 0.281700998544693 11.8656005859375 L 11.42820072174072 0.3060003519058228 C 11.62485122680664 0.1021503657102585 11.88652610778809 0.0002253631537314504 12.14820098876953 0.0002253631537314504 C 12.40987586975098 0.0002253631537314504 12.67155075073242 0.1021503657102585 12.86820125579834 0.3060003519058228 L 15.64830112457275 3.188700437545776 L 15.64830112457275 2.559600353240967 L 19.64790153503418 2.559600353240967 L 19.64790153503418 7.336800575256348 L 24.01470184326172 11.8656005859375 C 24.62670135498047 12.50100040435791 24.17670059204102 13.56030082702637 23.29470062255859 13.56030082702637 L 21.64860153198242 13.56030082702637 L 21.64860153198242 23.55929946899414 C 21.64860153198242 24.11100006103516 21.19950103759766 24.55920028686523 20.64870071411133 24.55920028686523 L 14.64840126037598 24.55920028686523 L 14.64840126037598 17.55990028381348 C 14.64840126037598 17.00819969177246 14.19930076599121 16.55910110473633 13.6485013961792 16.55910110473633 L 10.64880084991455 16.55910110473633 C 10.09710121154785 16.55910110473633 9.648900985717773 17.00819969177246 9.648900985717773 17.55990028381348 L 9.648900985717773 24.55920028686523 L 9.648900985717773 24.56010055541992 Z" stroke="none" fill="none"/>
    </g>
</svg>  