<svg xmlns="http://www.w3.org/2000/svg" width="45" height="51" viewBox="0 0 45 51">
  <g id="private_room_icon" transform="translate(-854 -527)">
    <rect id="background" width="39" height="39" transform="translate(857 530)" fill="#fff"/>
    <path id="Sottrazione_2" data-name="Sottrazione 2" d="M22,51h0l-4.8-6H4a4,4,0,0,1-4-4V4A4,4,0,0,1,4,0H41a4,4,0,0,1,4,4V41a4,4,0,0,1-4,4H26.8L22,51Zm.5-41A12.5,12.5,0,1,0,35,22.5,12.514,12.514,0,0,0,22.5,10Z" transform="translate(854 527)" fill="#707070"/>
    <g id="Unione_2" data-name="Unione 2" transform="translate(873 543)" fill="#707070">
      <path d="M 4.500400066375732 13.50040054321289 L 2.499800205230713 13.50040054321289 L 2.499800205230713 6.663240432739258 L 2.499800205230713 6.347240447998047 L 2.214380025863647 6.211630344390869 C 1.172940135002136 5.716780185699463 0.5000001192092896 4.652440071105957 0.5000001192092896 3.500100374221802 C 0.5000001192092896 1.845840215682983 1.845840096473694 0.5000002980232239 3.500100135803223 0.5000002980232239 C 5.154360294342041 0.5000002980232239 6.500200271606445 1.845840215682983 6.500200271606445 3.500100374221802 C 6.500200271606445 4.652450084686279 5.827270030975342 5.716780185699463 4.785820007324219 6.211620330810547 L 4.500400066375732 6.347230434417725 L 4.500400066375732 6.663230419158936 L 4.500400066375732 13.50040054321289 Z" stroke="none"/>
      <path d="M 4.000400066375732 13.00040054321289 L 4.000400066375732 6.663230419158936 L 4.000400066375732 6.031230449676514 L 4.571239948272705 5.760000228881836 C 5.439300060272217 5.347550392150879 6.000200271606445 4.460490226745605 6.000200271606445 3.500100374221802 C 6.000200271606445 2.121540307998657 4.878660202026367 1.000000238418579 3.500100135803223 1.000000238418579 C 2.121540069580078 1.000000238418579 1.00000011920929 2.121540307998657 1.00000011920929 3.500100374221802 C 1.00000011920929 4.460480213165283 1.560900092124939 5.347550392150879 2.428970098495483 5.76002025604248 L 2.999800205230713 6.031250476837158 L 2.999800205230713 6.663240432739258 L 2.999800205230713 13.00040054321289 L 4.000400066375732 13.00040054321289 M 5.000400066375732 14.00040054321289 L 1.999800086021423 14.00040054321289 L 1.999800086021423 6.663240432739258 C 0.8174601197242737 6.101450443267822 1.358032193365943e-07 4.896310329437256 1.358032193365943e-07 3.500100374221802 C 1.358032193365943e-07 1.566900253295898 1.566900134086609 2.716064386731887e-07 3.500100135803223 2.716064386731887e-07 C 5.433300018310547 2.716064386731887e-07 7.000200271606445 1.566900253295898 7.000200271606445 3.500100374221802 C 7.000200271606445 4.896310329437256 6.182740211486816 6.101450443267822 5.000400066375732 6.663230419158936 L 5.000400066375732 14.00040054321289 Z" stroke="none" fill="#707070"/>
    </g>
  </g>
</svg>
