<svg xmlns="http://www.w3.org/2000/svg" xmlns:xlink="http://www.w3.org/1999/xlink" width="66" height="72" viewBox="0 0 66 72">
  <defs>
    <filter id="Rettangolo_24" x="9" y="10" width="46" height="46" filterUnits="userSpaceOnUse">
      <feOffset dy="3" input="SourceAlpha"/>
      <feGaussianBlur stdDeviation="3.5" result="blur"/>
      <feFlood flood-opacity="0.251"/>
      <feComposite operator="in" in2="blur"/>
      <feComposite in="SourceGraphic"/>
    </filter>
    <filter id="Sottrazione_3" x="0" y="0" width="66" height="72" filterUnits="userSpaceOnUse">
      <feOffset dy="3" input="SourceAlpha"/>
      <feGaussianBlur stdDeviation="3.5" result="blur-2"/>
      <feFlood flood-opacity="0.251"/>
      <feComposite operator="in" in2="blur-2"/>
      <feComposite in="SourceGraphic"/>
    </filter>
  </defs>
  <g id="shared_room_icon" transform="translate(-843.5 -519.5)">
    <rect id="background" width="39" height="39" transform="translate(857 530)" fill="#fff"/>
    <g transform="matrix(1, 0, 0, 1, 843.5, 519.5)" filter="url(#Sottrazione_3)">
      <path id="Sottrazione_3-2" data-name="Sottrazione 3" d="M-171,51h0l-4.8-6H-189a4,4,0,0,1-4-4V4a4,4,0,0,1,4-4h37a4,4,0,0,1,4,4V41a4,4,0,0,1-4,4h-14.2l-4.8,6Zm1.462-23.688a.91.91,0,0,1,.88.679c.022.086.025.456.027,2.831v2.731l.057.239a1.135,1.135,0,0,0,.35.671,1.3,1.3,0,0,0,.967.536,1.77,1.77,0,0,0,.43-.062c.694-.173,1.033-.458,1.167-.986l0-.013c.064-.244.064-.244.066-5.774v-.442c0-5.451,0-5.837.028-5.894s.064-.092.105-.092a.092.092,0,0,1,.05.016,22.032,22.032,0,0,1,1.242,2.217,11.53,11.53,0,0,0,1.111,1.936,1.423,1.423,0,0,0,1.034.445,1.411,1.411,0,0,0,.351-.044,1.413,1.413,0,0,0,1.051-1.175,1.469,1.469,0,0,0-.124-.8c-.027-.057-.179-.334-.354-.645l-.16-.288c-.28-.5-.323-.581-.478-.869-.091-.166-.213-.392-.27-.5l-.114-.209-.1-.187-.068-.125-.15-.278c-.756-1.394-1.214-2.22-1.257-2.268-.014-.014-.066-.078-.126-.151l-.036-.044a2.517,2.517,0,0,0-.721-.618,2.371,2.371,0,0,0-.722-.212,2.11,2.11,0,0,0-.308-.035.926.926,0,0,0-.116.008,2.907,2.907,0,0,0-.674.193,4.256,4.256,0,0,0-.63.315,4.758,4.758,0,0,1-2.16.684c-.1.007-.2.011-.3.011a5.126,5.126,0,0,1-1.64-.277,8.13,8.13,0,0,1-1.047-.46A9.892,9.892,0,0,1-174.12,17.1a9.558,9.558,0,0,1-2.588-3.335,1.669,1.669,0,0,0-.5-.768,1.562,1.562,0,0,0-.553-.281,1.457,1.457,0,0,0-.345-.039,1.265,1.265,0,0,0-.22.018,1.441,1.441,0,0,0-1.155,1.151,1.69,1.69,0,0,0,.017.59,12.9,12.9,0,0,0,1.267,2.264,15.12,15.12,0,0,0,1.456,1.883,10.236,10.236,0,0,0,1.872,1.539c.851.594,1,.717,1.151.938a1.485,1.485,0,0,1,.25.666,14.011,14.011,0,0,1,.026,1.686c0,.81-.006,1.812-.013,2.2s-.013,2.336-.018,4.35c-.007,3.212-.005,3.673.017,3.8a1.368,1.368,0,0,0,1.241,1.2,1.565,1.565,0,0,0,.411.047.66.66,0,0,0,.335-.05,1.589,1.589,0,0,0,.543-.39,1.172,1.172,0,0,0,.363-.5,2.958,2.958,0,0,0,.107-.607c0-.094.008-1.473.01-2.732,0-2.14.006-2.591.027-2.682A.9.9,0,0,1-169.538,27.312Zm-.067-16c-.125,0-.233,0-.31.012a3.579,3.579,0,0,0-2.874,1.984,3.614,3.614,0,0,0-.346,1.105,4.766,4.766,0,0,0,0,1.039,3.627,3.627,0,0,0,1.034,2.073,3.628,3.628,0,0,0,2.177,1.022c.077.008.185.012.311.012a4.759,4.759,0,0,0,.7-.047,3.539,3.539,0,0,0,2.623-1.948,3.584,3.584,0,0,0,.373-1.58,3.652,3.652,0,0,0-.181-1.211,3.457,3.457,0,0,0-.838-1.376,3.531,3.531,0,0,0-1.994-1.04A4.576,4.576,0,0,0-169.6,11.313Zm-12.4.995a.5.5,0,0,0-.071,0,.35.35,0,0,0-.212.1.456.456,0,0,0-.105.266.434.434,0,0,0,.14.292c.071.054,1.623.628,1.73.641h.046a.28.28,0,0,0,.132-.037.371.371,0,0,0,.218-.3.369.369,0,0,0-.138-.338c-.063-.048-1.551-.611-1.676-.634A.364.364,0,0,0-182,12.308ZM-180,10.084a.347.347,0,0,0-.149.035.346.346,0,0,0-.224.341c0,.092.014.131.148.419.08.174.207.45.281.612.287.624.305.658.381.724a.362.362,0,0,0,.239.09.379.379,0,0,0,.268-.112.368.368,0,0,0,.105-.265.719.719,0,0,0-.1-.3c-.05-.11-.155-.339-.231-.5l-.078-.17c-.353-.767-.353-.767-.456-.818l-.016-.008A.378.378,0,0,0-180,10.084Zm2.988-.084a.351.351,0,0,0-.145.03c-.149.071-.153.08-.479.958a4.749,4.749,0,0,0-.3.9.364.364,0,0,0,.367.377.376.376,0,0,0,.35-.239c.058-.132.57-1.525.583-1.586a.4.4,0,0,0-.062-.28A.377.377,0,0,0-177.009,10Z" transform="translate(203.5 7.5)" fill="#707070"/>
    </g>
  </g>
</svg>
