<svg xmlns="http://www.w3.org/2000/svg" width="45" height="51" viewBox="0 0 45 51">
  <g id="shared_room_icon" transform="translate(-854 -527)">
    <rect id="background" width="39" height="39" transform="translate(857 530)" fill="#fff"/>
    <path id="Sottrazione_3" data-name="Sottrazione 3" d="M-171,51h0l-4.8-6H-189a4,4,0,0,1-4-4V4a4,4,0,0,1,4-4h37a4,4,0,0,1,4,4V41a4,4,0,0,1-4,4h-14.2l-4.8,6Zm2.62-23a.979.979,0,0,1,.95.707c.023.088.027.474.029,2.944V34.5l.061.248a1.159,1.159,0,0,0,.379.7,1.411,1.411,0,0,0,1.043.558,1.979,1.979,0,0,0,.464-.065c.751-.179,1.116-.476,1.262-1.024l0-.014c.068-.255.068-.255.07-6.033V28.43c0-5.668,0-6.069.031-6.13s.07-.094.114-.094a.1.1,0,0,1,.052.016,22.79,22.79,0,0,1,1.342,2.3,12,12,0,0,0,1.2,2.015A1.569,1.569,0,0,0-160.26,27a1.584,1.584,0,0,0,.376-.045,1.5,1.5,0,0,0,1.135-1.224,1.48,1.48,0,0,0-.134-.833c-.031-.063-.206-.37-.382-.67l-.189-.327c-.284-.493-.336-.582-.5-.875-.1-.174-.229-.407-.292-.52l-.142-.251-.092-.163-.142-.252-.007-.013-.086-.153c-.8-1.427-1.31-2.309-1.357-2.36-.017-.016-.089-.1-.174-.2a2.672,2.672,0,0,0-.779-.642,2.609,2.609,0,0,0-.78-.221,2.338,2.338,0,0,0-.331-.037,1.038,1.038,0,0,0-.127.009,3.2,3.2,0,0,0-.727.2,4.716,4.716,0,0,0-.68.328,5.3,5.3,0,0,1-2.334.712c-.1.007-.211.011-.32.011a5.727,5.727,0,0,1-1.775-.288,9.084,9.084,0,0,1-1.131-.48,10.669,10.669,0,0,1-2.1-1.327,9.978,9.978,0,0,1-2.794-3.469,1.724,1.724,0,0,0-.536-.8,1.677,1.677,0,0,0-.6-.293,1.642,1.642,0,0,0-.376-.041,1.411,1.411,0,0,0-.234.018,1.529,1.529,0,0,0-1.247,1.2,1.72,1.72,0,0,0,.018.613,13.208,13.208,0,0,0,1.369,2.354,15.9,15.9,0,0,0,1.572,1.958,10.827,10.827,0,0,0,2.022,1.6c.932.63,1.083.748,1.243.976a1.5,1.5,0,0,1,.27.692,14.177,14.177,0,0,1,.029,1.753c0,.81-.007,1.87-.014,2.283s-.015,2.471-.02,4.522c-.007,3.342-.005,3.821.018,3.948.129.711.505,1.06,1.341,1.247a1.709,1.709,0,0,0,.444.049.726.726,0,0,0,.362-.053,1.707,1.707,0,0,0,.587-.406,1.212,1.212,0,0,0,.391-.521,2.859,2.859,0,0,0,.116-.631c0-.079.009-1.115.011-2.841,0-2.2.007-2.693.029-2.788A.964.964,0,0,1-168.38,28Zm-.073-16.638c-.136,0-.252,0-.334.013a3.861,3.861,0,0,0-3.1,2.063,3.66,3.66,0,0,0-.374,1.15,4.718,4.718,0,0,0,0,1.081,3.716,3.716,0,0,0,1.117,2.155,3.968,3.968,0,0,0,2.352,1.062,3.274,3.274,0,0,0,.34.014,5.286,5.286,0,0,0,.754-.049,3.817,3.817,0,0,0,2.833-2.028,3.628,3.628,0,0,0,.4-1.642,3.694,3.694,0,0,0-.2-1.261,3.585,3.585,0,0,0-.905-1.431,3.855,3.855,0,0,0-2.154-1.083A5.289,5.289,0,0,0-168.453,11.366ZM-181.843,12.4a.679.679,0,0,0-.077,0,.372.372,0,0,0-.228.106.463.463,0,0,0-.114.278.441.441,0,0,0,.152.3c.078.056,1.754.655,1.868.667h.049a.314.314,0,0,0,.143-.038.39.39,0,0,0,.237-.313.375.375,0,0,0-.15-.346c-.066-.05-1.673-.636-1.81-.66A.482.482,0,0,0-181.843,12.4Zm2.166-2.314a.4.4,0,0,0-.159.035.363.363,0,0,0-.243.356c0,.1.016.14.159.437.091.187.227.471.3.635.306.642.329.684.411.753a.4.4,0,0,0,.259.094.414.414,0,0,0,.294-.122.369.369,0,0,0,.108-.271.709.709,0,0,0-.107-.316c-.054-.116-.166-.351-.249-.523l-.08-.167c-.385-.807-.385-.807-.5-.86l-.017-.008A.427.427,0,0,0-179.678,10.088ZM-176.45,10a.381.381,0,0,0-.156.032c-.16.072-.165.082-.518,1a4.855,4.855,0,0,0-.323.937.386.386,0,0,0,.4.392.408.408,0,0,0,.378-.249c.057-.123.616-1.588.63-1.65a.4.4,0,0,0-.067-.29.413.413,0,0,0-.337-.168Z" transform="translate(1047 527)" fill="#707070"/>
  </g>
</svg>
