<?xml version="1.0" encoding="utf-8"?>
<svg xmlns="http://www.w3.org/2000/svg" width="29" height="44.726" viewBox="0 0 29 44.726">
    <g id="Esclusione_1" data-name="Esclusione 1" fill="#fff">
    <path d="M 14.49990081787109 43.53302383422852 C 14.13278388977051 43.15526962280273 13.37441253662109 42.24657440185547 12.01256084442139 40.12351989746094 C 10.58529090881348 37.89847946166992 8.967680931091309 35.06888961791992 7.457700729370117 32.15600204467773 C 5.622070789337158 28.61493110656738 4.061790943145752 25.18827056884766 2.945550918579102 22.24649047851563 C 1.65458083152771 18.84423065185547 1.000000834465027 16.23790168762207 1.000000834465027 14.49990081787109 C 1.000000834465027 10.89389133453369 2.404220819473267 7.503751277923584 4.953980922698975 4.953980922698975 C 7.503750801086426 2.404221057891846 10.89389038085938 1.000001192092896 14.49990081787109 1.000001192092896 C 18.10591125488281 1.000001192092896 21.49604988098145 2.404221057891846 24.04582023620605 4.953980922698975 C 26.5955810546875 7.503751277923584 27.99980163574219 10.89389133453369 27.99980163574219 14.49990081787109 C 27.99980163574219 16.23790168762207 27.3452205657959 18.84423065185547 26.05425071716309 22.24649047851563 C 24.93801116943359 25.18827056884766 23.37773132324219 28.61493110656738 21.54211044311523 32.15600204467773 C 20.0321216583252 35.06888961791992 18.41451072692871 37.89847946166992 16.98724174499512 40.12351989746094 C 15.62538909912109 42.24657440185547 14.86701774597168 43.15526962280273 14.49990081787109 43.53302383422852 Z M 14.49990081787109 8.999900817871094 C 11.46719074249268 8.999900817871094 8.999900817871094 11.46719074249268 8.999900817871094 14.49990081787109 C 8.999900817871094 17.53261184692383 11.46719074249268 19.99990081787109 14.49990081787109 19.99990081787109 C 17.5326099395752 19.99990081787109 19.99990081787109 17.53261184692383 19.99990081787109 14.49990081787109 C 19.99990081787109 11.46719074249268 17.5326099395752 8.999900817871094 14.49990081787109 8.999900817871094 Z" stroke="none"/>
    <path d="M 14.49990081787109 41.97443389892578 C 14.93983173370361 41.39493942260742 15.53948593139648 40.53951263427734 16.30554008483887 39.33283233642578 C 17.67598152160645 37.17414093017578 19.22040176391602 34.46192169189453 20.65430068969727 31.69578170776367 C 22.47251129150391 28.18831062316895 24.01648139953613 24.79812049865723 25.11930084228516 21.89172172546387 C 26.67355155944824 17.79561042785645 26.99980163574219 15.61115074157715 26.99980163574219 14.49990081787109 C 26.99980163574219 11.16100120544434 25.69960021972656 8.021981239318848 23.33872032165527 5.661091327667236 C 20.97782135009766 3.300201177597046 17.83880043029785 2.000001192092896 14.49990081787109 2.000001192092896 C 11.16100120544434 2.000001192092896 8.021981239318848 3.300201177597046 5.661090850830078 5.661081314086914 C 3.300200700759888 8.021981239318848 2.000000715255737 11.16100120544434 2.000000715255737 14.49990081787109 C 2.000000715255737 15.61115074157715 2.326250791549683 17.79561042785645 3.880500793457031 21.89172172546387 C 4.983320713043213 24.79812049865723 6.527290821075439 28.18831062316895 8.345500946044922 31.69578170776367 C 9.779400825500488 34.46192169189453 11.32382106781006 37.17414093017578 12.694260597229 39.33283233642578 C 13.4603157043457 40.53951263427734 14.05996990203857 41.39493942260742 14.49990081787109 41.97443389892578 M 14.49990081787109 7.999901294708252 C 18.08401107788086 7.999901294708252 20.99990081787109 10.91579151153564 20.99990081787109 14.49990081787109 C 20.99990081787109 18.08401107788086 18.08401107788086 20.99990081787109 14.49990081787109 20.99990081787109 C 10.91579055786133 20.99990081787109 7.999900817871094 18.08401107788086 7.999900817871094 14.49990081787109 C 7.999900817871094 10.91579151153564 10.91579055786133 7.999901294708252 14.49990081787109 7.999901294708252 M 14.49990081787109 44.72640228271484 C 13.6042308807373 44.72640228271484 9.97273063659668 39.18062210083008 6.569890975952148 32.6162223815918 C 4.716860771179199 29.04157066345215 3.140280723571777 25.57846069335938 2.010590791702271 22.60125160217285 C 0.6764608025550842 19.08525085449219 8.178710686479462e-07 16.35956192016602 8.178710686479462e-07 14.49990081787109 C 8.178710686479462e-07 10.62677097320557 1.508240818977356 6.985511302947998 4.246870994567871 4.246870994567871 C 6.98551082611084 1.508241176605225 10.62677097320557 1.141357415690436e-06 14.49990081787109 1.141357415690436e-06 C 18.37303161621094 1.141357415690436e-06 22.01429176330566 1.508241176605225 24.75293159484863 4.246870994567871 C 27.4915599822998 6.985511302947998 28.99980163574219 10.62677097320557 28.99980163574219 14.49990081787109 C 28.99980163574219 16.35956192016602 28.32334136962891 19.08525085449219 26.98921012878418 22.60125160217285 C 25.85951995849609 25.57846069335938 24.28293991088867 29.04157066345215 22.42991065979004 32.6162223815918 C 19.02707099914551 39.18062210083008 15.39557075500488 44.72640228271484 14.49990081787109 44.72640228271484 Z M 14.49990081787109 9.999900817871094 C 12.01859092712402 9.999900817871094 9.999900817871094 12.01859092712402 9.999900817871094 14.49990081787109 C 9.999900817871094 16.98121070861816 12.01859092712402 18.99990081787109 14.49990081787109 18.99990081787109 C 16.98121070861816 18.99990081787109 18.99990081787109 16.98121070861816 18.99990081787109 14.49990081787109 C 18.99990081787109 12.01859092712402 16.98121070861816 9.999900817871094 14.49990081787109 9.999900817871094 Z" stroke="none" fill="#707070"/>
    </g>
</svg>